<svg width="140" height="120" viewBox="0 0 89 75" fill="none" xmlns="http://www.w3.org/2000/svg">
<path d="M68.7316 16.4126C79.2076 16.5035 80.3331 38.6973 87.4886 38.6973C94.644 38.6974 0.333068 38.6973 7.83304 38.6973C15.333 38.6973 16.8331 16.4125 26.8331 16.4124C36.8331 16.4124 58.2556 16.3217 68.7316 16.4126Z" fill="#0000ff"/>
<path d="M64 38.5904C70.7544 38.6235 73.8911 47.6293 78.955 54.3474C78.955 54.3474 40.2327 55.4717 34.7262 52.1337C29.2198 48.7957 23.8785 38.5905 23.8785 38.5905C23.8785 38.5905 57.2456 38.5574 64 38.5904Z" fill="#6C6CFF"/>
<path d="M63.3342 54.344C67.0918 54.348 68.7478 61.6212 72 65.5C72 65.5 53.2785 66.4205 50 64.5C46.7215 62.5794 41.0358 53.255 41.0358 53.255C41.0358 53.255 59.5766 54.3401 63.3342 54.344Z" fill="#56CCF2"/>
</svg>
